<mxfile host="app.diagrams.net" modified="2023-10-24T18:21:51.405Z" agent="Mozilla/5.0 (Macintosh; Intel Mac OS X 10_15_7) AppleWebKit/537.36 (KHTML, like Gecko) Chrome/117.0.0.0 Safari/537.36" etag="Dgf4cVbYdpC3KYmCYpcf" version="22.0.7" type="github">
  <diagram name="Страница — 1" id="fSWy1ijENZ-bCtmKOP5C">
    <mxGraphModel dx="763" dy="401" grid="1" gridSize="10" guides="1" tooltips="1" connect="1" arrows="1" fold="1" page="1" pageScale="1" pageWidth="827" pageHeight="1169" math="0" shadow="0">
      <root>
        <mxCell id="0" />
        <mxCell id="1" parent="0" />
        <mxCell id="7bCH_6VPNtAceHTh1374-1" value="Положительные стороны" style="rounded=1;whiteSpace=wrap;html=1;fillColor=#008a00;fontColor=#ffffff;strokeColor=#005700;" vertex="1" parent="1">
          <mxGeometry x="360" y="210" width="210" height="80" as="geometry" />
        </mxCell>
        <mxCell id="7bCH_6VPNtAceHTh1374-2" value="Внутренние факторы" style="rounded=1;whiteSpace=wrap;html=1;fillColor=#d0cee2;strokeColor=#56517e;" vertex="1" parent="1">
          <mxGeometry x="220" y="460" width="120" height="60" as="geometry" />
        </mxCell>
        <mxCell id="7bCH_6VPNtAceHTh1374-3" value="Внешние факторы" style="rounded=1;whiteSpace=wrap;html=1;fillColor=#b0e3e6;strokeColor=#0e8088;" vertex="1" parent="1">
          <mxGeometry x="220" y="310" width="120" height="60" as="geometry" />
        </mxCell>
        <mxCell id="7bCH_6VPNtAceHTh1374-4" value="Отрицательные стороны" style="rounded=1;whiteSpace=wrap;html=1;fillColor=#fad9d5;strokeColor=#ae4132;" vertex="1" parent="1">
          <mxGeometry x="590" y="210" width="220" height="80" as="geometry" />
        </mxCell>
        <mxCell id="7bCH_6VPNtAceHTh1374-5" value="&lt;span style=&quot;color: rgb(248, 248, 248); font-family: Inter, -apple-system, &amp;quot;system-ui&amp;quot;, &amp;quot;Segoe UI&amp;quot;, Roboto, Helvetica, Arial, sans-serif, &amp;quot;Apple Color Emoji&amp;quot;, &amp;quot;Segoe UI Emoji&amp;quot;, &amp;quot;Segoe UI Symbol&amp;quot;; font-size: 11px; font-style: normal; font-variant-ligatures: normal; font-variant-caps: normal; font-weight: 400; letter-spacing: normal; orphans: 2; text-align: left; text-indent: 0px; text-transform: none; widows: 2; word-spacing: 0px; -webkit-text-stroke-width: 0px; text-decoration-thickness: initial; text-decoration-style: initial; text-decoration-color: initial; float: none; display: inline !important;&quot;&gt;-Повышение эффективности и надежности установочных процедур&lt;br&gt;&lt;br&gt;-В режиме реального времени позволяет оперативно реагировать на возможные проблемы или ошибки в процессе установки.&lt;br&gt;&lt;br&gt;-Удобный интерфейс&lt;br&gt;&lt;/span&gt;" style="rounded=1;whiteSpace=wrap;html=1;fontSize=11;verticalAlign=top;fillColor=#6d8764;strokeColor=#3A5431;fontColor=#ffffff;" vertex="1" parent="1">
          <mxGeometry x="361" y="310" width="219" height="140" as="geometry" />
        </mxCell>
        <mxCell id="7bCH_6VPNtAceHTh1374-6" value="-Развитие и улучшение инструментов мониторинга может привести к расширению функциональности и возможностей мониторинга процесса установки.&lt;br&gt;-Мониторинг процесса установки может помочь в оптимизации и автоматизации установочных процедур, что приведет к сокращению времени и ресурсов, затрачиваемых на установку программного обеспечения.&lt;br&gt;&lt;br&gt;" style="rounded=1;whiteSpace=wrap;html=1;fillColor=#6d8764;fontColor=#ffffff;strokeColor=#3A5431;fontSize=11;verticalAlign=top;align=center;" vertex="1" parent="1">
          <mxGeometry x="360" y="460" width="220" height="160" as="geometry" />
        </mxCell>
        <mxCell id="7bCH_6VPNtAceHTh1374-7" value="-Технические проблемы или сбои в инструментах мониторинга могут привести к неполадкам или недостоверным данным в процессе мониторинга.&lt;br&gt;&lt;br&gt;-Конкуренция на рынке инструментов мониторинга может ограничить проникновение и признание проекта &quot;Мониторинг процесса установки&quot;." style="rounded=1;whiteSpace=wrap;html=1;fillColor=#f0a30a;fontColor=#000000;strokeColor=#BD7000;fontSize=11;verticalAlign=top;" vertex="1" parent="1">
          <mxGeometry x="590" y="460" width="240" height="160" as="geometry" />
        </mxCell>
        <mxCell id="7bCH_6VPNtAceHTh1374-8" value="&lt;font style=&quot;font-size: 11px;&quot;&gt;-Возможны сложности в мониторинге установки на различных платформах или с использованием разных технологий.&lt;br&gt;&lt;br&gt;&lt;/font&gt;-Необходимость настройки и интеграции инструментов&amp;nbsp; мониторинга может&lt;br&gt;&amp;nbsp; &amp;nbsp; &amp;nbsp; &amp;nbsp;потребовать дополнительных &lt;br&gt;усилий и ресурсов." style="rounded=1;whiteSpace=wrap;html=1;fillColor=#f0a30a;fontColor=#000000;strokeColor=#BD7000;verticalAlign=top;" vertex="1" parent="1">
          <mxGeometry x="590" y="310" width="240" height="140" as="geometry" />
        </mxCell>
        <mxCell id="7bCH_6VPNtAceHTh1374-9" value="" style="endArrow=none;html=1;rounded=0;" edge="1" parent="1">
          <mxGeometry width="50" height="50" relative="1" as="geometry">
            <mxPoint x="220" y="300" as="sourcePoint" />
            <mxPoint x="830" y="300" as="targetPoint" />
          </mxGeometry>
        </mxCell>
        <mxCell id="7bCH_6VPNtAceHTh1374-10" value="" style="endArrow=none;html=1;rounded=0;" edge="1" parent="1">
          <mxGeometry width="50" height="50" relative="1" as="geometry">
            <mxPoint x="350" y="600" as="sourcePoint" />
            <mxPoint x="350" y="210" as="targetPoint" />
          </mxGeometry>
        </mxCell>
        <mxCell id="7bCH_6VPNtAceHTh1374-13" value="S" style="text;html=1;strokeColor=none;fillColor=none;align=center;verticalAlign=middle;whiteSpace=wrap;rounded=0;fontStyle=1;fontSize=17;" vertex="1" parent="1">
          <mxGeometry x="530" y="420" width="60" height="30" as="geometry" />
        </mxCell>
        <mxCell id="7bCH_6VPNtAceHTh1374-14" value="W" style="text;html=1;strokeColor=none;fillColor=none;align=center;verticalAlign=middle;whiteSpace=wrap;rounded=0;fontStyle=1;fontSize=17;" vertex="1" parent="1">
          <mxGeometry x="780" y="420" width="60" height="30" as="geometry" />
        </mxCell>
        <mxCell id="7bCH_6VPNtAceHTh1374-15" value="O" style="text;html=1;strokeColor=none;fillColor=none;align=center;verticalAlign=middle;whiteSpace=wrap;rounded=0;fontSize=17;fontStyle=1" vertex="1" parent="1">
          <mxGeometry x="530" y="590" width="60" height="30" as="geometry" />
        </mxCell>
        <mxCell id="7bCH_6VPNtAceHTh1374-16" value="T" style="text;html=1;strokeColor=none;fillColor=none;align=center;verticalAlign=middle;whiteSpace=wrap;rounded=0;fontSize=17;fontStyle=1" vertex="1" parent="1">
          <mxGeometry x="780" y="590" width="60" height="30" as="geometry" />
        </mxCell>
      </root>
    </mxGraphModel>
  </diagram>
</mxfile>
